<?xml version="1.0" encoding="UTF-8" standalone="no"?>
<svg
   version="1.0"
   width="74.971252pt"
   height="56.902599pt"
   viewBox="0 0 74.971252 56.902599"
   preserveAspectRatio="xMidYMid"
   id="svg8"
   xmlns:xlink="http://www.w3.org/1999/xlink"
   xmlns="http://www.w3.org/2000/svg"
   xmlns:svg="http://www.w3.org/2000/svg">
  <defs
     id="defs8">
    <linearGradient
       id="linearGradient17">
      <stop
         style="stop-color:#000000;stop-opacity:1;"
         offset="0.03759014"
         id="stop18" />
      <stop
         style="stop-color:#ff0000;stop-opacity:1;"
         offset="1"
         id="stop17" />
    </linearGradient>
    <linearGradient
       xlink:href="#linearGradient17"
       id="linearGradient18"
       x1="606.93542"
       y1="1186.7623"
       x2="863.35211"
       y2="482.26321"
       gradientUnits="userSpaceOnUse" />
    <linearGradient
       xlink:href="#linearGradient17"
       id="linearGradient8"
       gradientUnits="userSpaceOnUse"
       x1="606.93542"
       y1="1186.7623"
       x2="863.35211"
       y2="482.26321" />
    <linearGradient
       xlink:href="#linearGradient17"
       id="linearGradient9"
       gradientUnits="userSpaceOnUse"
       x1="606.93542"
       y1="1186.7623"
       x2="863.35211"
       y2="482.26321" />
  </defs>
  <g
     transform="matrix(0.1,0,0,-0.1,-36.028751,111.9026)"
     fill="#000000"
     stroke="none"
     id="g8">
    <g
       id="g15"
       style="fill:url(#linearGradient18)">
      <path
         d="m 718,1037 c -64,-45 -120,-85 -124,-89 -7,-8 59,-112 77,-124 5,-3 34,13 66,35 31,23 60,41 64,41 4,0 47,-56 95,-125 47,-69 89,-125 91,-125 6,0 123,82 123,86 0,2 -40,61 -89,131 -50,70 -109,156 -133,190 -24,35 -45,63 -48,62 -3,0 -58,-37 -122,-82 z"
         id="path7"
         style="fill:url(#linearGradient8)" />
      <path
         d="m 425,984 c -27,-19 -56,-39 -63,-43 -10,-5 23,-60 120,-199 73,-105 137,-191 142,-192 4,0 64,39 132,86 l 123,86 -31,47 c -60,88 -52,86 -124,35 l -63,-45 -78,112 c -118,169 -99,156 -158,113 z"
         id="path8"
         style="fill:url(#linearGradient9)" />
    </g>
  </g>
</svg>
