<?xml version="1.0" encoding="UTF-8" standalone="no"?>
<svg
   version="1.0"
   width="449.97125pt"
   height="112.41959pt"
   viewBox="0 0 449.97125 112.41959"
   preserveAspectRatio="xMidYMid"
   id="svg8"
   xmlns:xlink="http://www.w3.org/1999/xlink"
   xmlns="http://www.w3.org/2000/svg"
   xmlns:svg="http://www.w3.org/2000/svg">
  <defs
     id="defs8">
    <linearGradient
       id="linearGradient17">
      <stop
         style="stop-color:#000000;stop-opacity:1;"
         offset="0.03759014"
         id="stop18" />
      <stop
         style="stop-color:#ff0000;stop-opacity:1;"
         offset="1"
         id="stop17" />
    </linearGradient>
    <linearGradient
       id="linearGradient14">
      <stop
         style="stop-color:#ff0000;stop-opacity:1;"
         offset="0"
         id="stop14" />
      <stop
         style="stop-color:#000000;stop-opacity:1;"
         offset="0.88045543"
         id="stop15" />
    </linearGradient>
    <linearGradient
       xlink:href="#linearGradient14"
       id="linearGradient15"
       x1="1330.0002"
       y1="917.90192"
       x2="4860"
       y2="917.90192"
       gradientUnits="userSpaceOnUse" />
    <linearGradient
       xlink:href="#linearGradient17"
       id="linearGradient18"
       x1="606.93542"
       y1="1186.7623"
       x2="863.35211"
       y2="482.26321"
       gradientUnits="userSpaceOnUse" />
    <linearGradient
       xlink:href="#linearGradient14"
       id="linearGradient2"
       gradientUnits="userSpaceOnUse"
       x1="1330.0002"
       y1="917.90192"
       x2="4860"
       y2="917.90192" />
    <linearGradient
       xlink:href="#linearGradient14"
       id="linearGradient3"
       gradientUnits="userSpaceOnUse"
       x1="1330.0002"
       y1="917.90192"
       x2="4860"
       y2="917.90192" />
    <linearGradient
       xlink:href="#linearGradient14"
       id="linearGradient4"
       gradientUnits="userSpaceOnUse"
       x1="1330.0002"
       y1="917.90192"
       x2="4860"
       y2="917.90192" />
    <linearGradient
       xlink:href="#linearGradient14"
       id="linearGradient5"
       gradientUnits="userSpaceOnUse"
       x1="1330.0002"
       y1="917.90192"
       x2="4860"
       y2="917.90192" />
    <linearGradient
       xlink:href="#linearGradient14"
       id="linearGradient6"
       gradientUnits="userSpaceOnUse"
       x1="1330.0002"
       y1="917.90192"
       x2="4860"
       y2="917.90192" />
    <linearGradient
       xlink:href="#linearGradient14"
       id="linearGradient7"
       gradientUnits="userSpaceOnUse"
       x1="1330.0002"
       y1="917.90192"
       x2="4860"
       y2="917.90192" />
    <linearGradient
       xlink:href="#linearGradient17"
       id="linearGradient8"
       gradientUnits="userSpaceOnUse"
       x1="606.93542"
       y1="1186.7623"
       x2="863.35211"
       y2="482.26321" />
    <linearGradient
       xlink:href="#linearGradient17"
       id="linearGradient9"
       gradientUnits="userSpaceOnUse"
       x1="606.93542"
       y1="1186.7623"
       x2="863.35211"
       y2="482.26321" />
  </defs>
  <g
     transform="matrix(0.1,0,0,-0.1,-36.028751,148)"
     fill="#000000"
     stroke="none"
     id="g8">
    <g
       id="g9"
       style="fill:url(#linearGradient15)">
      <path
         d="m 1550,1078 c 0,-375 -2,-406 -19,-445 -25,-53 -79,-83 -151,-83 h -50 v -91 -91 l 88,4 c 144,7 241,67 300,187 l 27,56 3,433 3,432 h -100 -101 z"
         id="path1"
         style="fill:url(#linearGradient2)" />
      <path
         d="m 3931,1458 c -9,-26 -226,-656 -302,-878 -27,-80 -54,-155 -59,-168 -22,-51 -18,-53 97,-50 l 106,3 40,118 39,117 h 218 218 l 39,-117 40,-118 106,-3 c 88,-2 107,0 107,12 0,8 -61,191 -136,408 -75,216 -159,462 -188,545 l -51,153 h -133 c -128,0 -133,-1 -141,-22 z m 221,-443 c 42,-123 73,-227 70,-230 -3,-3 -72,-5 -154,-5 -110,0 -148,3 -148,12 0,20 144,448 151,448 3,0 40,-101 81,-225 z"
         id="path2"
         style="fill:url(#linearGradient3)" />
      <path
         d="m 4670,1375 v -105 h 95 95 v 105 105 h -95 -95 z"
         id="path3"
         style="fill:url(#linearGradient4)" />
      <path
         d="m 2890,1330 c 0,-86 -51,-150 -119,-150 -20,0 -21,-5 -21,-85 v -84 l 68,-3 67,-3 5,-235 c 5,-218 7,-238 27,-277 49,-90 135,-133 270,-133 h 83 v 85 85 h -52 c -70,0 -113,26 -128,77 -7,24 -10,107 -8,218 l 3,180 93,3 92,3 v 84 85 h -95 -95 v 95 95 h -95 -95 z"
         id="path4"
         style="fill:url(#linearGradient5)" />
      <path
         d="m 2204,1190 c -114,-24 -223,-111 -276,-218 -32,-65 -33,-70 -33,-197 0,-126 1,-132 32,-196 40,-80 121,-160 200,-196 52,-24 71,-27 173,-27 105,-1 120,1 173,26 82,39 115,65 148,117 l 29,46 -76,38 -76,38 -33,-34 c -52,-54 -97,-70 -176,-65 -106,8 -181,70 -196,161 l -6,37 294,2 294,3 -1,95 c 0,82 -4,104 -28,157 -38,83 -120,162 -199,192 -66,24 -181,34 -243,21 z m 147,-161 c 47,-15 96,-64 114,-115 l 13,-39 -190,-3 c -105,-1 -193,0 -195,2 -9,8 35,91 60,114 49,46 127,62 198,41 z"
         id="path5"
         style="fill:url(#linearGradient6)" />
      <path
         d="M 4670,770 V 360 h 95 95 v 410 410 h -95 -95 z"
         id="path6"
         style="fill:url(#linearGradient7)" />
    </g>
    <g
       id="g15"
       style="fill:url(#linearGradient18)">
      <path
         d="m 718,1037 c -64,-45 -120,-85 -124,-89 -7,-8 59,-112 77,-124 5,-3 34,13 66,35 31,23 60,41 64,41 4,0 47,-56 95,-125 47,-69 89,-125 91,-125 6,0 123,82 123,86 0,2 -40,61 -89,131 -50,70 -109,156 -133,190 -24,35 -45,63 -48,62 -3,0 -58,-37 -122,-82 z"
         id="path7"
         style="fill:url(#linearGradient8)" />
      <path
         d="m 425,984 c -27,-19 -56,-39 -63,-43 -10,-5 23,-60 120,-199 73,-105 137,-191 142,-192 4,0 64,39 132,86 l 123,86 -31,47 c -60,88 -52,86 -124,35 l -63,-45 -78,112 c -118,169 -99,156 -158,113 z"
         id="path8"
         style="fill:url(#linearGradient9)" />
    </g>
  </g>
</svg>
